<?xml version="1.0" encoding="UTF-8" standalone="no"?>
<!DOCTYPE svg PUBLIC "-//W3C//DTD SVG 20010904//EN" "http://www.w3.org/TR/2001/REC-SVG-20010904/DTD/svg10.dtd">
<svg version="1.0" xmlns="http://www.w3.org/2000/svg" width="657.000000pt" height="636.000000pt" viewBox="0 0 657.000000 636.000000" preserveAspectRatio="xMidYMid meet">
<g transform="translate(0.000000,636.000000) scale(0.100000,-0.100000)" fill="currentColor" stroke="none">
<path d="M675 6086 c-175 -44 -314 -182 -361 -361 -18 -67 -21 -4942 -3 -5027 25 -121 109 -243 211 -310 71 -46 128 -66 221 -78 116 -14 4845 -14 4940 1 192 30 364 188 405 374 8 35 12 436 14 1315 l3 1265 -24 49 c-29 58 -77 108 -135 139 -37 20 -59 22 -212 25 -101 2 -187 -1 -211 -7 -61 -17 -124 -64 -163 -123 l-35 -53 -6 -500 c-4 -275 -7 -766 -8 -1092 -1 -584 -1 -592 -21 -603 -25 -14 -4156 -11 -4183 2 -16 8 -17 118 -17 2096 0 1655 3 2092 13 2105 11 16 94 17 1102 19 l1090 3 55 37 c33 22 69 58 90 90 l35 53 0 200 c0 186 -2 203 -21 240 -28 51 -66 90 -124 123 l-45 27 -1280 2 c-992 1 -1291 -1 -1330 -11z"/>
<path d="M5593 6086 c-23 -7 -64 -26 -90 -41 -32 -18 -378 -358 -1050 -1032 -568 -570 -1006 -1002 -1012 -998 -8 4 -11 108 -11 324 0 345 -2 365 -57 440 -35 49 -90 88 -150 106 -58 18 -322 21 -374 4 -96 -30 -167 -98 -198 -190 -21 -62 -21 -75 -21 -821 0 -662 2 -768 16 -830 48 -210 179 -344 388 -400 65 -17 125 -18 847 -18 755 0 780 1 832 20 102 38 165 116 187 230 15 80 12 257 -5 325 -19 72 -63 132 -130 177 l-50 33 -347 3 c-319 3 -348 5 -348 20 0 9 225 242 501 517 275 275 728 729 1006 1008 460 463 508 515 536 574 92 198 11 426 -186 523 -56 28 -80 33 -154 36 -57 3 -103 -1 -130 -10z"/>
</g>
</svg>