<?xml version="1.0" encoding="UTF-8" standalone="no"?>
<!DOCTYPE svg PUBLIC "-//W3C//DTD SVG 20010904//EN" "http://www.w3.org/TR/2001/REC-SVG-20010904/DTD/svg10.dtd">
<svg version="1.0" xmlns="http://www.w3.org/2000/svg" width="621.000000pt" height="639.000000pt" viewBox="0 0 621.000000 639.000000" preserveAspectRatio="xMidYMid meet">
<g transform="translate(0.000000,639.000000) scale(0.100000,-0.100000)" fill="currentColor" stroke="none">
<path d="M623 6059 c-168 -33 -321 -183 -368 -360 -21 -78 -22 -4964 -1 -5051 20 -83 63 -155 136 -228 62 -62 80 -74 175 -117 38 -17 143 -18 2570 -18 2475 0 2531 0 2580 19 159 61 279 202 314 366 9 41 11 374 9 1320 l-3 1265 -27 45 c-37 64 -75 99 -136 127 -50 24 -59 24 -240 21 -169 -3 -191 -5 -227 -25 -51 -27 -97 -76 -127 -133 l-23 -45 -3 -1081 c-2 -895 -5 -1084 -16 -1093 -16 -13 -4173 -11 -4193 2 -20 12 -19 4190 0 4206 10 7 325 11 1098 13 l1084 3 41 22 c53 28 99 74 127 127 21 38 22 54 22 236 0 181 -2 198 -22 236 -28 53 -76 99 -132 127 l-46 22 -1275 1 c-701 1 -1294 -2 -1317 -7z"/>
<path d="M3980 6061 c-46 -14 -85 -39 -121 -78 -61 -64 -70 -91 -81 -252 -8 -125 -7 -156 7 -216 20 -83 59 -139 130 -187 l50 -33 345 -5 c316 -5 345 -6 345 -22 0 -9 -436 -455 -969 -989 -582 -584 -980 -991 -996 -1019 -37 -62 -63 -170 -55 -223 20 -123 62 -207 138 -273 87 -76 222 -116 322 -96 142 29 84 -24 1152 1048 541 542 987 982 993 979 6 -4 10 -120 10 -318 0 -340 4 -373 57 -447 38 -52 107 -96 174 -110 34 -8 109 -11 200 -8 122 3 152 8 196 27 57 25 102 69 136 133 l22 43 3 795 c2 566 0 812 -8 855 -38 194 -210 363 -402 395 -74 12 -1609 13 -1648 1z"/>
</g>
</svg>